<?xml version="1.0" encoding="utf-8"?>
<!-- Generator: Adobe Illustrator 26.1.0, SVG Export Plug-In . SVG Version: 6.00 Build 0)  -->
<svg version="1.1" xmlns="http://www.w3.org/2000/svg" xmlns:xlink="http://www.w3.org/1999/xlink" x="0px" y="0px"
	 viewBox="0 0 660 660" style="enable-background:new 0 0 660 660;" xml:space="preserve">
<style type="text/css">
	.st0{display:none;}
	.st1{display:inline;}
	.st2{fill:#CEDEE6;}
	.st3{fill:none;stroke:#231F20;stroke-width:4;stroke-linecap:round;stroke-linejoin:round;stroke-miterlimit:10;}
	.st4{fill:none;stroke:#231F20;stroke-width:4.0577;stroke-linecap:round;stroke-linejoin:round;stroke-miterlimit:10;}
	.st5{fill:none;stroke:#231F20;stroke-width:3.234;stroke-linecap:round;stroke-linejoin:round;stroke-miterlimit:10;}
	
		.st6{fill:none;stroke:#231F20;stroke-width:4;stroke-linecap:round;stroke-linejoin:round;stroke-miterlimit:10;stroke-dasharray:12;}
	.st7{fill:#221F1F;}
	.st8{fill:none;stroke:#DCE0DF;stroke-width:4;stroke-linecap:round;stroke-linejoin:round;stroke-miterlimit:10;}
	
		.st9{fill:none;stroke:#DCE0DF;stroke-width:4;stroke-linecap:round;stroke-linejoin:round;stroke-miterlimit:10;stroke-dasharray:12;}
</style>
<g id="Vectorportal.com" class="st0">
	<g id="heart" class="st1">
	</g>
	<g id="heart_2_" class="st1">
	</g>
	<g id="heart_1_" class="st1">
	</g>
	<g class="st1">
		<rect class="st2" width="660" height="660"/>
		<g>
			<path class="st3" d="M151.95,155.49c9.97-9.96,16.14-23.72,16.14-38.92c0-30.38-24.62-55-55-55c-30.38,0-55,24.62-55,55
				s24.62,55,55,55h66.46"/>
			<path class="st3" d="M126.89,86.73c0-7.62-6.18-13.8-13.8-13.8c-7.62,0-13.8,6.18-13.8,13.8s6.18,13.8,13.8,13.8
				C120.71,100.53,126.89,94.35,126.89,86.73z"/>
			<path class="st3" d="M126.89,140.64c0-7.62-6.18-13.8-13.8-13.8c-7.62,0-13.8,6.18-13.8,13.8s6.18,13.8,13.8,13.8
				C120.71,154.44,126.89,148.26,126.89,140.64z"/>
			<path class="st3" d="M140.05,127.49c7.62,0,13.8-6.18,13.8-13.8c0-7.62-6.18-13.8-13.8-13.8c-7.62,0-13.8,6.18-13.8,13.8
				C126.25,121.31,132.43,127.49,140.05,127.49z"/>
			<path class="st3" d="M86.13,127.49c7.62,0,13.8-6.18,13.8-13.8c0-7.62-6.18-13.8-13.8-13.8c-7.62,0-13.8,6.18-13.8,13.8
				C72.33,121.31,78.51,127.49,86.13,127.49z"/>
		</g>
		<g>
			<path class="st3" d="M275.4,150.41c0,12.65,10.35,23,23,23h84c12.65,0,23-10.35,23-23v-41.98h-130V150.41z"/>
			<path class="st3" d="M377.8,59.91L294.46,70.4c-12.55,1.58-21.53,13.14-19.95,25.69l0.95,7.64L404.44,87.5l-0.95-7.64
				C401.91,67.31,390.35,58.34,377.8,59.91z"/>
			<line class="st3" x1="275.45" y1="131.34" x2="396.23" y2="131.34"/>
			<line class="st3" x1="285.81" y1="131.34" x2="304.74" y2="108.81"/>
			<line class="st3" x1="316.46" y1="131.34" x2="335.38" y2="108.81"/>
			<line class="st3" x1="347.1" y1="131.34" x2="366.03" y2="108.81"/>
			<line class="st3" x1="377.75" y1="131.34" x2="396.68" y2="108.81"/>
			<line class="st4" x1="277.25" y1="98.8" x2="293.11" y2="73.51"/>
			<line class="st4" x1="308.04" y1="94.51" x2="323.9" y2="69.22"/>
			<line class="st4" x1="338.83" y1="90.21" x2="354.69" y2="64.92"/>
			<line class="st4" x1="369.62" y1="85.92" x2="385.48" y2="60.63"/>
		</g>
		<g>
			<path class="st3" d="M587.92,65.07h-82c-12.65,0-23,10.35-23,23v57c0,12.65,10.35,23,23,23h82c12.65,0,23-10.35,23-23v-57
				C610.92,75.42,600.57,65.07,587.92,65.07z"/>
			<path class="st3" d="M536.66,84.28l28.51,16.46c5.26,3.03,5.26,10.62,0,13.65l-28.51,16.46c-5.25,3.03-11.82-0.76-11.82-6.83
				V91.11C524.84,85.04,531.41,81.25,536.66,84.28z"/>
			<line class="st3" x1="518.07" y1="150.9" x2="595.17" y2="150.9"/>
			<line class="st3" x1="498.67" y1="150.9" x2="505.25" y2="150.9"/>
			<path class="st3" d="M517.42,150.9c0-3.13-2.54-5.67-5.67-5.67c-3.13,0-5.67,2.54-5.67,5.67c0,3.13,2.54,5.67,5.67,5.67
				C514.88,156.57,517.42,154.03,517.42,150.9z"/>
		</g>
		<g>
			<path class="st3" d="M170.34,247.16H67.3c-6.86,0-12.48,5.62-12.48,12.48v78.04c0,6.86,5.62,12.48,12.48,12.48h103.04
				c6.86,0,12.48-5.62,12.48-12.48v-78.04C182.82,252.78,177.2,247.16,170.34,247.16z"/>
			<path class="st5" d="M80.19,269.9H65.25c-1.65,0-3-1.35-3-3v-8.93c0-1.65,1.35-3,3-3h14.95c1.65,0,3,1.35,3,3v8.93
				C83.19,268.55,81.84,269.9,80.19,269.9z"/>
			<path class="st5" d="M80.19,293.85H65.25c-1.65,0-3-1.35-3-3v-8.93c0-1.65,1.35-3,3-3h14.95c1.65,0,3,1.35,3,3v8.93
				C83.19,292.5,81.84,293.85,80.19,293.85z"/>
			<path class="st5" d="M80.19,317.79H65.25c-1.65,0-3-1.35-3-3v-8.93c0-1.65,1.35-3,3-3h14.95c1.65,0,3,1.35,3,3v8.93
				C83.19,316.44,81.84,317.79,80.19,317.79z"/>
			<path class="st5" d="M80.19,341.74H65.25c-1.65,0-3-1.35-3-3v-8.93c0-1.65,1.35-3,3-3h14.95c1.65,0,3,1.35,3,3v8.93
				C83.19,340.39,81.84,341.74,80.19,341.74z"/>
			<path class="st5" d="M173.35,269.9h-14.95c-1.65,0-3-1.35-3-3v-8.93c0-1.65,1.35-3,3-3h14.95c1.65,0,3,1.35,3,3v8.93
				C176.35,268.55,175,269.9,173.35,269.9z"/>
			<path class="st5" d="M173.35,293.85h-14.95c-1.65,0-3-1.35-3-3v-8.93c0-1.65,1.35-3,3-3h14.95c1.65,0,3,1.35,3,3v8.93
				C176.35,292.5,175,293.85,173.35,293.85z"/>
			<path class="st5" d="M173.35,317.79h-14.95c-1.65,0-3-1.35-3-3v-8.93c0-1.65,1.35-3,3-3h14.95c1.65,0,3,1.35,3,3v8.93
				C176.35,316.44,175,317.79,173.35,317.79z"/>
			<path class="st5" d="M173.35,341.74h-14.95c-1.65,0-3-1.35-3-3v-8.93c0-1.65,1.35-3,3-3h14.95c1.65,0,3,1.35,3,3v8.93
				C176.35,340.39,175,341.74,173.35,341.74z"/>
		</g>
		<g>
			<path class="st3" d="M327.97,344.38c-19.8,5.81-45.48-22.28-51.29-42.08c-5.81-19.8,5.53-40.56,25.32-46.37
				c5.82-1.71,11.72-1.93,17.29-0.9"/>
			<path class="st3" d="M310.94,316.84c-2.37,1.69-4.18,4.02-5.25,6.66"/>
			<path class="st3" d="M287.14,293.59c2.64,2.37,6.26,2.81,9.93,1.73c3.23-0.95,5.66-3.3,6.84-6.19"/>
			<g>
				<path class="st3" d="M403.91,296.98c-4.17,23.93-30.48,60.22-54.41,56.05c-23.93-4.17-36.43-47.21-32.26-71.15
					c4.17-23.94,26.95-39.96,50.88-35.79C392.05,250.26,408.08,273.04,403.91,296.98z"/>
				<path class="st3" d="M390.48,296.38c0.9-5.18-2.57-10.11-7.75-11.01c-5.18-0.9-10.11,2.57-11.01,7.75"/>
				<path class="st3" d="M350.71,289.45c0.9-5.18-2.57-10.11-7.75-11.01c-5.18-0.9-10.11,2.57-11.01,7.75"/>
				<path class="st3" d="M338.34,311.65c-2.09,12.01,4.82,19.01,14.56,20.71c9.74,1.7,19.01-4.82,20.71-14.57
					C373.61,317.8,338.4,311.28,338.34,311.65z"/>
			</g>
		</g>
		<g>
			<path class="st3" d="M512.82,271.72h41.89c-0.15-0.69-0.47-1.35-0.98-1.9c0.01-0.41-0.03-0.83-0.11-1.24
				c0.65-0.88,0.96-1.93,0.95-2.97c0.82,0.22,1.66,0.16,2.42-0.13c-0.97,1.05-1.57,2.46-1.57,4c0,0.79,0.16,1.54,0.44,2.23h25.16
				c0.9,0,1.73,0.25,2.47,0.64c0.04-1.48-0.66-2.89-1.86-3.74c0.83-0.53,1.48-1.34,1.78-2.35c0.67-2.24-0.6-4.59-2.83-5.26
				c-1.51-0.45-3.05-0.01-4.12,1c0.18-1.26-0.18-2.58-1.14-3.56c-0.13-0.13-0.27-0.25-0.41-0.36c0.01-0.01,0.02-0.02,0.03-0.03
				c2.34-2.29,2.38-6.04,0.1-8.38c-2.29-2.34-6.04-2.38-8.38-0.1c-0.83,0.81-1.37,1.81-1.62,2.87c-1.24-0.24-2.57,0.11-3.54,1.06
				c-1.57,1.53-1.6,4.05-0.07,5.62c0.36,0.37,0.78,0.64,1.22,0.84c-0.81,0.77-1.32,1.85-1.32,3.05c0,0.18,0.02,0.36,0.04,0.54
				c-0.01,0-0.03,0-0.04,0c-0.94,0-1.83,0.23-2.62,0.62c0.23-0.3,0.43-0.62,0.57-0.99c0.57-1.51,0.16-3.15-0.92-4.22
				c0.34-0.3,0.61-0.68,0.77-1.12c0.25-0.66,0.24-1.36,0.01-1.97c0.69-0.47,1.24-1.15,1.56-1.99c0.83-2.18-0.28-4.62-2.46-5.45
				c-2.18-0.83-4.62,0.28-5.45,2.46c-0.07,0.17-0.11,0.35-0.16,0.52c-0.01,0-0.02-0.01-0.04-0.01c-2.39-0.9-4.99-0.16-6.57,1.67
				c0.01-2.18-1.64-4.04-3.85-4.22c-2.33-0.2-4.37,1.53-4.56,3.86c-0.02,0.18-0.01,0.36-0.01,0.54c-0.01,0-0.03,0-0.04,0
				c-0.97-0.08-1.91,0.08-2.75,0.42c-0.6-0.58-1.39-0.97-2.29-1.04c-2.05-0.17-3.86,1.35-4.03,3.4c-0.15,1.81,1.01,3.42,2.7,3.9
				c0.02,0.12,0.05,0.24,0.07,0.36c-1.66-1.63-4.34-1.61-5.97,0.05c-1.06,1.08-1.41,2.58-1.08,3.96c-0.68-0.46-1.5-0.73-2.38-0.73
				c-2.33,0-4.23,1.89-4.23,4.23c0,0.18,0.02,0.36,0.04,0.54c-0.01,0-0.03,0-0.04,0c-2.39,0-4.44,1.41-5.38,3.44
				C512.45,271.75,512.63,271.72,512.82,271.72z"/>
			<polygon class="st3" points="514.02,282.32 579.81,282.32 572.58,350.9 521.25,350.9 			"/>
			<g>
				<polygon class="st3" points="567.47,282.32 562.95,350.9 553.78,350.9 555.71,282.32 				"/>
				<polygon class="st3" points="538.13,282.32 540.06,350.9 530.89,350.9 526.37,282.32 				"/>
			</g>
			<path class="st3" d="M512.82,271.72h68.21c2.91,0,5.3,2.38,5.3,5.3l0,0c0,2.91-2.38,5.3-5.3,5.3h-68.21c-2.91,0-5.3-2.38-5.3-5.3
				l0,0C507.52,274.1,509.9,271.72,512.82,271.72z"/>
		</g>
		<g>
			<rect x="55.82" y="451.5" class="st3" width="126" height="88"/>
			<polyline class="st3" points="96.48,441.11 113.4,451.1 133.9,437.01 			"/>
			<g>
				<path class="st3" d="M131.76,526.59c-11.39,1.63-22.93,2.22-34.43,1.72c-5.68-0.25-11.36-0.76-17-1.52
					c-2.89-0.39-5.37-1.27-7.73-3.02c-2.14-1.59-4.03-3.62-5.3-5.97c-1.33-2.46-1.62-5.31-2.02-8.04c-0.42-2.91-0.73-5.83-0.9-8.76
					c-0.35-5.76-0.22-11.54,0.38-17.28c0.3-2.86,0.72-5.71,1.25-8.54c0.5-2.68,1.88-5.03,3.7-7.03c1.86-2.05,4.17-3.8,6.76-4.79
					c2.57-0.99,5.53-1.09,8.25-1.4c11.46-1.28,23.03-1.5,34.53-0.63c2.82,0.21,5.63,0.49,8.44,0.83c2.79,0.34,5.56,0.57,8.09,1.89
					c2.44,1.28,4.6,3.15,6.27,5.34c1.75,2.29,2.5,4.71,2.98,7.52c1.62,9.46,1.94,19.12,0.94,28.66c-0.24,2.28-0.55,4.56-0.94,6.82
					c-0.4,2.35-0.93,4.46-2.24,6.48C140.35,522.57,136.23,525.95,131.76,526.59C130,526.84,132.9,526.43,131.76,526.59z"/>
			</g>
			<g>
				<path class="st3" d="M162.91,475.64c0-2.21-1.79-4-4-4c-2.21,0-4,1.79-4,4c0,2.21,1.79,4,4,4
					C161.12,479.63,162.91,477.84,162.91,475.64z"/>
				<path class="st3" d="M176.04,475.64c0-2.21-1.79-4-4-4c-2.21,0-4,1.79-4,4c0,2.21,1.79,4,4,4
					C174.25,479.63,176.04,477.84,176.04,475.64z"/>
				<path class="st3" d="M162.91,491.27c0-2.21-1.79-4-4-4c-2.21,0-4,1.79-4,4c0,2.21,1.79,4,4,4
					C161.12,495.27,162.91,493.48,162.91,491.27z"/>
				<path class="st3" d="M176.04,491.27c0-2.21-1.79-4-4-4c-2.21,0-4,1.79-4,4c0,2.21,1.79,4,4,4
					C174.25,495.27,176.04,493.48,176.04,491.27z"/>
				<line class="st3" x1="155.17" y1="505.36" x2="174.65" y2="505.36"/>
				<line class="st3" x1="155.17" y1="512.36" x2="174.65" y2="512.36"/>
				<line class="st3" x1="155.17" y1="519.36" x2="174.65" y2="519.36"/>
			</g>
		</g>
		<g>
			<path class="st3" d="M344.17,440.28l-4.56-4.56l-65.01,65.01l8.45,8.45c7.1-3.05,15.64-1.68,21.44,4.12
				c5.8,5.8,7.17,14.34,4.12,21.44l8.45,8.45l8.59-8.58"/>
			<path class="st3" d="M396.67,467.33c-7.1,3.05-15.64,1.68-21.44-4.12s-7.17-14.34-4.12-21.44l-8.45-8.45l-65.01,65.01l8.45,8.45
				c7.1-3.05,15.64-1.68,21.44,4.12s7.17,14.34,4.12,21.44l8.45,8.45l65.01-65.01L396.67,467.33z"/>
			<line class="st6" x1="347.5" y1="448.85" x2="389.64" y2="490.99"/>
			<path class="st3" d="M360.04,480.4l-3.22,8.58c-0.19,0.51-0.1,1.09,0.24,1.51l5.72,7.17c0.83,1.04,0.05,2.58-1.28,2.52
				l-9.16-0.41c-0.54-0.02-1.06,0.24-1.36,0.7l-5.05,7.65c-0.73,1.11-2.44,0.84-2.79-0.44l-2.44-8.84
				c-0.15-0.53-0.56-0.94-1.08-1.08l-8.84-2.44c-1.28-0.35-1.55-2.06-0.44-2.79l7.65-5.05c0.46-0.3,0.72-0.82,0.7-1.36l-0.41-9.16
				c-0.06-1.33,1.48-2.11,2.52-1.28l7.17,5.71c0.43,0.34,1,0.43,1.51,0.24l8.58-3.22C359.29,477.93,360.5,479.15,360.04,480.4z"/>
		</g>
		<g>
			<g>
				<line class="st3" x1="514.83" y1="500.76" x2="592.57" y2="540.83"/>
				<line class="st3" x1="578.68" y1="500.93" x2="501.27" y2="540.83"/>
			</g>
			<polyline class="st3" points="581.93,428.07 581.93,476.35 511.91,476.35 511.91,428.07 			"/>
			<rect x="511.91" y="435.68" class="st3" width="70.02" height="30.82"/>
			<polygon class="st3" points="581.93,476.35 511.91,476.35 489.01,500.74 604.83,500.74 			"/>
			<polyline class="st3" points="581.93,446.72 598.94,462.31 598.94,493.67 			"/>
			<polyline class="st3" points="511.67,446.72 494.66,462.31 494.66,493.67 			"/>
		</g>
	</g>
	<g class="st1">
		<path class="st7" d="M157.55,628.05c-0.89,0.11-1.67,0.58-2.33,1.42c-0.75,0.96-1.13,2.12-1.13,3.47c0,1.35,0.38,2.5,1.13,3.46
			c0.66,0.84,1.43,1.32,2.33,1.43v2.79c-1.89-0.07-3.52-0.82-4.88-2.25c-1.44-1.5-2.15-3.32-2.15-5.45c0-2.13,0.72-3.95,2.15-5.46
			c1.36-1.42,2.99-2.17,4.88-2.24V628.05z M160.66,629.46c-0.71-0.91-1.56-1.39-2.55-1.44v-2.82c1.92,0.06,3.58,0.82,4.95,2.25
			c0.7,0.74,1.23,1.55,1.59,2.43l-3.05,1.5C161.42,630.68,161.11,630.03,160.66,629.46z M163.06,638.36
			c-1.38,1.44-3.03,2.2-4.95,2.26v-2.78c0.99-0.05,1.85-0.53,2.55-1.45c0.35-0.45,0.62-0.94,0.8-1.48l2.96,1.53
			C164.08,637.14,163.62,637.78,163.06,638.36z"/>
		<path class="st7" d="M169.1,640.62h-3.5v-15.41h3.5V640.62z M176.12,633.71c0.27,0.28,0.53,0.68,0.78,1.21
			c0.11,0.11,0.2,0.57,0.28,1.37l0.11,0.55l0.32,1.7c0.07,0.18,0.16,0.52,0.28,1.03c0.12,0.19,0.34,0.52,0.65,1.02l-3.66,0.02
			c-0.12,0-0.34-0.44-0.65-1.31c-0.06-0.11-0.25-1.13-0.55-3.06c-0.13-0.46-0.42-0.82-0.88-1.09c-0.43-0.15-1.48-0.22-3.15-0.22
			v-2.79h2.8c1.09-0.39,1.64-1.11,1.64-2.17v-0.27c-0.24-1.15-0.9-1.75-1.97-1.79h-2.47v-2.73h2.47c2.07,0,3.56,0.56,4.49,1.68
			c0.66,0.96,0.99,1.96,0.99,3.01v0.2c0,1.2-0.35,2.25-1.04,3.16C176.43,633.41,176.28,633.56,176.12,633.71z"/>
		<path class="st7" d="M182.94,640.62h-3.5v-15.41h3.5V640.62z M190.75,625.25v2.83h-7.21v-2.83H190.75z M190.18,631.07v2.83h-6.62
			v-2.83H190.18z M190.78,637.77v2.83h-7.21v-2.83H190.78z"/>
		<path class="st7" d="M200.3,625.25l5.44,15.38h-3.97l-1.03-3.27h-4.26l0.83-2.84h2.62v-0.05l-1.59-5.66h-0.05l-3.33,11.83h-3.11
			v-2.23l4.47-13.15H200.3z"/>
		<path class="st7" d="M217.91,625.28v2.83h-11.45v-2.83H217.91z M214.02,640.59h-3.5v-11.91h3.5V640.59z"/>
		<path class="st7" d="M222.58,640.62h-3.5v-15.41h3.5V640.62z M230.39,625.25v2.83h-7.21v-2.83H230.39z M229.82,631.07v2.83h-6.62
			v-2.83H229.82z M230.42,637.77v2.83h-7.21v-2.83H230.42z"/>
		<path class="st7" d="M234.99,640.62h-3.5v-15.41h3.5V640.62z M239.99,629.88c-0.24-1.2-0.9-1.81-1.97-1.83l-2.47-0.03v-2.84h2.47
			c2.07,0,3.56,0.58,4.49,1.75c0.66,1,0.99,2.05,0.99,3.13v5.68c0,1.09-0.33,2.13-0.99,3.13c-0.93,1.17-2.43,1.75-4.49,1.75h-2.47
			v-2.84l2.47-0.03c1.07-0.02,1.73-0.63,1.97-1.83V629.88z"/>
		<path class="st7" d="M254.27,625.21h0.04c2.47,0,4.04,0.88,4.69,2.64c0.15,0.35,0.23,0.75,0.23,1.21v0.27
			c0.01,0.39-0.09,0.73-0.28,1c-0.23,0.67-0.61,1.22-1.14,1.64l-0.49,0.28l-0.26,0.09c0.28,0.15,0.51,0.27,0.69,0.35
			c1.09,0.65,1.71,1.62,1.86,2.91c0.04,0.14,0.05,0.31,0.05,0.51c-0.06,0.91-0.15,1.44-0.27,1.59c-0.07,0.39-0.33,0.84-0.76,1.37
			c-0.51,0.73-1.44,1.24-2.79,1.54l-0.92,0.05h-0.05c-0.07,0-0.27,0-0.59-0.01l-3.22,0.01v-2.81h3.59c0.92-0.3,1.39-0.86,1.42-1.69
			v-0.45c0.06-0.56-0.2-1.01-0.76-1.37c-0.11-0.18-0.46-0.29-1.03-0.34l-3.2-0.02l0.01-2.89h3.2c0.13-0.03,0.31-0.04,0.54-0.04
			c0.65-0.28,0.98-0.79,0.98-1.53l-0.05-0.39l-0.11-0.27h-0.05c-0.29-0.42-0.72-0.65-1.3-0.71l-3.24,0.02l0.02-2.96L254.27,625.21z"
			/>
		<path class="st7" d="M260.67,625.24h3.85l2.27,3.89l-1.94,3.26L260.67,625.24z M265.02,633.16l4.63-7.92h3.85l-4.98,8.51v6.84
			h-3.5L265.02,633.16z"/>
		<path class="st7" d="M287.78,640.62h-1.13l-5.61-15.38h3.32l3.41,9.35V640.62z M288.43,634.73l3.44-9.45h3.32l-5.6,15.36h-1.17
			V634.73z"/>
		<path class="st7" d="M299.39,640.62h-3.49v-15.41h3.49V640.62z M307.2,625.25v2.83h-7.21v-2.83H307.2z M306.63,631.07v2.83h-6.62
			v-2.83H306.63z M307.23,637.77v2.83h-7.21v-2.83H307.23z"/>
		<path class="st7" d="M315.34,628.05c-0.89,0.11-1.67,0.58-2.33,1.42c-0.75,0.96-1.13,2.12-1.13,3.47c0,1.35,0.38,2.5,1.13,3.46
			c0.66,0.84,1.43,1.32,2.33,1.43v2.79c-1.9-0.07-3.52-0.82-4.88-2.25c-1.44-1.5-2.15-3.32-2.15-5.45c0-2.13,0.72-3.95,2.15-5.46
			c1.36-1.42,2.99-2.17,4.88-2.24V628.05z M318.45,629.46c-0.71-0.91-1.56-1.39-2.55-1.44v-2.82c1.92,0.06,3.57,0.82,4.96,2.25
			c0.7,0.74,1.23,1.55,1.59,2.43l-3.05,1.5C319.21,630.68,318.9,630.03,318.45,629.46z M320.85,638.36
			c-1.38,1.44-3.03,2.2-4.96,2.26v-2.78c0.99-0.05,1.84-0.53,2.55-1.45c0.35-0.45,0.62-0.94,0.81-1.48l2.96,1.53
			C321.87,637.14,321.42,637.78,320.85,638.36z"/>
		<path class="st7" d="M334.81,625.28v2.83h-11.45v-2.83H334.81z M330.92,640.59h-3.5v-11.91h3.5V640.59z"/>
		<path class="st7" d="M343.03,628.05c-0.89,0.11-1.67,0.58-2.33,1.42c-0.75,0.96-1.13,2.12-1.13,3.47c0,1.35,0.38,2.5,1.13,3.46
			c0.66,0.84,1.43,1.32,2.33,1.43v2.79c-1.89-0.07-3.52-0.82-4.88-2.25c-1.43-1.5-2.15-3.32-2.15-5.45c0-2.13,0.72-3.95,2.15-5.46
			c1.36-1.42,2.99-2.17,4.88-2.24V628.05z M343.58,637.85c1-0.05,1.85-0.53,2.55-1.45c0.75-0.96,1.13-2.11,1.13-3.46
			c0-1.36-0.38-2.52-1.13-3.47c-0.71-0.91-1.56-1.39-2.55-1.44v-2.82c1.92,0.06,3.57,0.82,4.95,2.25c1.44,1.51,2.16,3.33,2.16,5.46
			c0,2.13-0.72,3.95-2.16,5.45c-1.38,1.44-3.03,2.2-4.95,2.26V637.85z"/>
		<path class="st7" d="M355.23,640.62h-3.5v-15.41h3.5V640.62z M362.25,633.71c0.27,0.28,0.53,0.68,0.78,1.21
			c0.11,0.11,0.2,0.57,0.28,1.37l0.11,0.55l0.32,1.7c0.07,0.18,0.16,0.52,0.28,1.03c0.12,0.19,0.34,0.52,0.66,1.02l-3.66,0.02
			c-0.12,0-0.34-0.44-0.66-1.31c-0.06-0.11-0.25-1.13-0.55-3.06c-0.13-0.46-0.42-0.82-0.88-1.09c-0.43-0.15-1.48-0.22-3.15-0.22
			v-2.79h2.8c1.09-0.39,1.64-1.11,1.64-2.17v-0.27c-0.24-1.15-0.9-1.75-1.97-1.79h-2.47v-2.73h2.47c2.06,0,3.56,0.56,4.49,1.68
			c0.66,0.96,0.99,1.96,0.99,3.01v0.2c0,1.2-0.35,2.25-1.04,3.16C362.56,633.41,362.42,633.56,362.25,633.71z"/>
		<path class="st7" d="M369.07,640.62h-3.5v-15.41h3.5V640.62z M372.09,625.17c2.07,0,3.57,0.58,4.49,1.75
			c0.66,1,0.99,2.05,0.99,3.13v0.21c0,1.25-0.35,2.35-1.04,3.29c-0.93,1.26-2.77,1.84-5.53,1.75h-1.37v-2.9h2.8
			c1.09-0.4,1.64-1.15,1.64-2.25v-0.28c-0.24-1.2-0.9-1.82-1.97-1.87h-2.47v-2.84H372.09z"/>
		<path class="st7" d="M385.74,628.05c-0.89,0.11-1.67,0.58-2.33,1.42c-0.75,0.96-1.12,2.12-1.12,3.47c0,1.35,0.38,2.5,1.12,3.46
			c0.66,0.84,1.43,1.32,2.33,1.43v2.79c-1.9-0.07-3.52-0.82-4.88-2.25c-1.44-1.5-2.16-3.32-2.16-5.45c0-2.13,0.72-3.95,2.16-5.46
			c1.36-1.42,2.98-2.17,4.88-2.24V628.05z M386.29,637.85c0.99-0.05,1.85-0.53,2.55-1.45c0.75-0.96,1.13-2.11,1.13-3.46
			c0-1.36-0.38-2.52-1.13-3.47c-0.71-0.91-1.56-1.39-2.55-1.44v-2.82c1.92,0.06,3.58,0.82,4.96,2.25c1.44,1.51,2.15,3.33,2.15,5.46
			c0,2.13-0.72,3.95-2.15,5.45c-1.38,1.44-3.03,2.2-4.96,2.26V637.85z"/>
		<path class="st7" d="M397.94,640.62h-3.5v-15.41h3.5V640.62z M404.96,633.71c0.27,0.28,0.53,0.68,0.78,1.21
			c0.11,0.11,0.2,0.57,0.28,1.37l0.11,0.55l0.32,1.7c0.07,0.18,0.16,0.52,0.28,1.03c0.12,0.19,0.34,0.52,0.66,1.02l-3.66,0.02
			c-0.12,0-0.34-0.44-0.65-1.31c-0.07-0.11-0.25-1.13-0.55-3.06c-0.13-0.46-0.42-0.82-0.88-1.09c-0.43-0.15-1.48-0.22-3.15-0.22
			v-2.79h2.8c1.09-0.39,1.64-1.11,1.64-2.17v-0.27c-0.24-1.15-0.9-1.75-1.97-1.79h-2.47v-2.73h2.47c2.06,0,3.56,0.56,4.49,1.68
			c0.66,0.96,0.99,1.96,0.99,3.01v0.2c0,1.2-0.35,2.25-1.04,3.16C405.27,633.41,405.13,633.56,404.96,633.71z"/>
		<path class="st7" d="M419.71,625.28v2.83h-11.45v-2.83H419.71z M415.82,640.59h-3.5v-11.91h3.5V640.59z"/>
		<path class="st7" d="M429.34,625.25l5.44,15.38h-3.97l-1.03-3.27h-4.26l0.83-2.84h2.62v-0.05l-1.59-5.66h-0.05L424,640.62h-3.11
			v-2.23l4.47-13.15H429.34z"/>
		<path class="st7" d="M439.02,640.62h-3.49v-15.41h3.49V640.62z M446.96,637.78v2.83h-7.21v-2.83H446.96z"/>
		<path class="st7" d="M451.62,637.79v2.83h-3.49v-2.83H451.62z"/>
		<path class="st7" d="M459.74,628.05c-0.9,0.11-1.67,0.58-2.33,1.42c-0.75,0.96-1.12,2.12-1.12,3.47c0,1.35,0.38,2.5,1.12,3.46
			c0.66,0.84,1.43,1.32,2.33,1.43v2.79c-1.9-0.07-3.52-0.82-4.88-2.25c-1.44-1.5-2.16-3.32-2.16-5.45c0-2.13,0.72-3.95,2.16-5.46
			c1.36-1.42,2.98-2.17,4.88-2.24V628.05z M462.85,629.46c-0.71-0.91-1.56-1.39-2.55-1.44v-2.82c1.92,0.06,3.57,0.82,4.95,2.25
			c0.7,0.74,1.23,1.55,1.59,2.43l-3.05,1.5C463.61,630.68,463.3,630.03,462.85,629.46z M465.25,638.36
			c-1.38,1.44-3.03,2.2-4.95,2.26v-2.78c0.99-0.05,1.84-0.53,2.55-1.45c0.35-0.45,0.62-0.94,0.81-1.48l2.96,1.53
			C466.27,637.14,465.81,637.78,465.25,638.36z"/>
		<path class="st7" d="M474.82,628.05c-0.89,0.11-1.67,0.58-2.33,1.42c-0.75,0.96-1.12,2.12-1.12,3.47c0,1.35,0.37,2.5,1.12,3.46
			c0.66,0.84,1.43,1.32,2.33,1.43v2.79c-1.89-0.07-3.52-0.82-4.88-2.25c-1.44-1.5-2.15-3.32-2.15-5.45c0-2.13,0.72-3.95,2.15-5.46
			c1.36-1.42,2.99-2.17,4.88-2.24V628.05z M475.38,637.85c0.99-0.05,1.84-0.53,2.55-1.45c0.75-0.96,1.13-2.11,1.13-3.46
			c0-1.36-0.38-2.52-1.13-3.47c-0.71-0.91-1.56-1.39-2.55-1.44v-2.82c1.92,0.06,3.57,0.82,4.96,2.25c1.43,1.51,2.16,3.33,2.16,5.46
			c0,2.13-0.72,3.95-2.16,5.45c-1.38,1.44-3.03,2.2-4.96,2.26V637.85z"/>
		<path class="st7" d="M487.03,640.62h-3.49v-14.46l3.49,5.83V640.62z M492.09,639.56l-8.52-14.31h3.32l5.19,8.72V639.56z
			 M492.9,633.97l5.19-8.72h3.33l-8.52,14.31V633.97z M497.84,632l3.5-5.83v14.46h-3.5V632z"/>
	</g>
	<g class="st1">
		<path class="st7" d="M9.06-56.57c-1.68,0.2-3.14,1.1-4.38,2.69c-1.41,1.82-2.12,4.02-2.12,6.61c0,2.57,0.71,4.77,2.12,6.59
			c1.24,1.61,2.7,2.51,4.38,2.71v5.3c-3.56-0.14-6.62-1.56-9.18-4.29c-2.7-2.86-4.05-6.31-4.05-10.36c0-4.05,1.35-7.52,4.05-10.38
			c2.56-2.71,5.62-4.13,9.18-4.27V-56.57z M14.91-53.88c-1.33-1.73-2.93-2.64-4.8-2.74v-5.37c3.62,0.12,6.73,1.55,9.32,4.29
			c1.32,1.4,2.31,2.94,2.99,4.63l-5.73,2.86C16.35-51.57,15.76-52.79,14.91-53.88z M19.43-36.94c-2.6,2.75-5.7,4.18-9.32,4.3v-5.28
			c1.87-0.09,3.47-1.01,4.8-2.75c0.66-0.85,1.16-1.79,1.51-2.81L22-40.58C21.35-39.27,20.5-38.06,19.43-36.94z"/>
		<path class="st7" d="M30.79-32.64h-6.58v-29.32h6.58V-32.64z M44.01-45.8c0.51,0.53,1,1.3,1.47,2.31c0.2,0.22,0.37,1.09,0.53,2.61
			l0.2,1.04l0.6,3.23c0.13,0.34,0.31,0.99,0.52,1.96c0.23,0.35,0.64,1,1.23,1.94l-6.88,0.04c-0.23,0-0.64-0.83-1.23-2.49
			c-0.12-0.2-0.47-2.14-1.03-5.81c-0.24-0.87-0.79-1.56-1.65-2.08c-0.81-0.28-2.78-0.43-5.93-0.43v-5.3h5.26
			c2.06-0.73,3.09-2.11,3.09-4.12v-0.51c-0.46-2.19-1.69-3.32-3.71-3.41h-4.64v-5.2h4.64c3.89,0,6.71,1.07,8.46,3.2
			c1.24,1.82,1.86,3.73,1.86,5.73v0.39c0,2.28-0.65,4.29-1.96,6.02C44.59-46.37,44.32-46.07,44.01-45.8z"/>
		<path class="st7" d="M56.84-32.64h-6.58v-29.32h6.58V-32.64z M71.53-61.9v5.39H57.97v-5.39H71.53z M70.46-50.82v5.39H58.01v-5.39
			H70.46z M71.59-38.07v5.39H58.03v-5.39H71.59z"/>
		<path class="st7" d="M89.51-61.9l10.23,29.26h-7.47l-1.94-6.22h-8.01l1.56-5.41h4.92v-0.1l-2.99-10.77h-0.1l-6.26,22.5h-5.85
			v-4.24l8.41-25.02H89.51z"/>
		<path class="st7" d="M122.64-61.84v5.39h-21.55v-5.39H122.64z M115.32-32.7h-6.58v-22.67h6.58V-32.7z"/>
		<path class="st7" d="M131.44-32.64h-6.58l0-29.32h6.58V-32.64z M146.13-61.9v5.39h-13.56v-5.39H146.13z M145.06-50.82v5.39h-12.45
			v-5.39H145.06z M146.19-38.07v5.39h-13.56v-5.39H146.19z"/>
		<path class="st7" d="M154.78-32.64h-6.58v-29.32h6.58V-32.64z M164.19-53.08c-0.46-2.28-1.7-3.45-3.72-3.49l-4.64-0.06v-5.41h4.64
			c3.89,0,6.71,1.11,8.46,3.32c1.24,1.9,1.86,3.89,1.86,5.96v10.81c0,2.07-0.62,4.06-1.86,5.96c-1.75,2.22-4.57,3.33-8.46,3.33
			h-4.64v-5.41l4.64-0.06c2.02-0.04,3.25-1.2,3.72-3.49V-53.08z"/>
		<path class="st7" d="M191.06-61.96h0.08c4.65,0,7.59,1.67,8.82,5.02c0.28,0.66,0.42,1.43,0.42,2.3v0.51
			c0.01,0.75-0.16,1.38-0.53,1.9c-0.43,1.28-1.14,2.32-2.14,3.12l-0.93,0.53l-0.48,0.16c0.52,0.29,0.95,0.51,1.29,0.67
			c2.05,1.24,3.21,3.08,3.49,5.53c0.07,0.27,0.1,0.59,0.1,0.96c-0.11,1.74-0.28,2.75-0.5,3.02c-0.13,0.73-0.61,1.61-1.43,2.61
			c-0.97,1.39-2.72,2.37-5.25,2.94l-1.73,0.1h-0.1c-0.13,0-0.5,0-1.11-0.02l-6.05,0.02v-5.34h6.76c1.74-0.57,2.62-1.64,2.67-3.22
			V-42c0.11-1.06-0.37-1.93-1.43-2.61c-0.22-0.34-0.86-0.56-1.94-0.65l-6.03-0.04l0.02-5.49h6.02c0.24-0.05,0.58-0.08,1.01-0.08
			c1.23-0.53,1.83-1.5,1.83-2.92l-0.1-0.73l-0.2-0.51h-0.1c-0.54-0.79-1.35-1.24-2.44-1.35l-6.09,0.04l0.04-5.63L191.06-61.96z"/>
		<path class="st7" d="M203.1-61.92h7.24l4.28,7.41l-3.65,6.2L203.1-61.92z M211.3-46.84l8.72-15.08h7.25l-9.36,16.2v13.02h-6.58
			L211.3-46.84z"/>
		<path class="st7" d="M254.11-32.64H252L241.44-61.9h6.26l6.42,17.79V-32.64z M255.35-43.86l6.48-17.97h6.26l-10.54,29.22h-2.2
			V-43.86z"/>
		<path class="st7" d="M275.96-32.64h-6.58v-29.32h6.58V-32.64z M290.65-61.9v5.39h-13.56v-5.39H290.65z M289.59-50.82v5.39h-12.45
			v-5.39H289.59z M290.72-38.07v5.39h-13.56v-5.39H290.72z"/>
		<path class="st7" d="M305.97-56.57c-1.68,0.2-3.14,1.1-4.38,2.69c-1.41,1.82-2.12,4.02-2.12,6.61c0,2.57,0.71,4.77,2.12,6.59
			c1.24,1.61,2.7,2.51,4.38,2.71v5.3c-3.57-0.14-6.63-1.56-9.18-4.29c-2.71-2.86-4.06-6.31-4.06-10.36c0-4.05,1.35-7.52,4.06-10.38
			c2.56-2.71,5.62-4.13,9.18-4.27V-56.57z M311.82-53.88c-1.33-1.73-2.93-2.64-4.8-2.74v-5.37c3.62,0.12,6.73,1.55,9.33,4.29
			c1.32,1.4,2.31,2.94,2.99,4.63l-5.73,2.86C313.26-51.57,312.67-52.79,311.82-53.88z M316.35-36.94c-2.6,2.75-5.71,4.18-9.33,4.3
			v-5.28c1.87-0.09,3.47-1.01,4.8-2.75c0.66-0.85,1.16-1.79,1.52-2.81l5.57,2.92C318.26-39.27,317.4-38.06,316.35-36.94z"/>
		<path class="st7" d="M342.61-61.84v5.39h-21.55v-5.39H342.61z M335.29-32.7h-6.58v-22.67h6.58V-32.7z"/>
		<path class="st7" d="M358.07-56.57c-1.68,0.2-3.14,1.1-4.38,2.69c-1.41,1.82-2.12,4.02-2.12,6.61c0,2.57,0.71,4.77,2.12,6.59
			c1.24,1.61,2.7,2.51,4.38,2.71v5.3c-3.56-0.14-6.62-1.56-9.18-4.29c-2.7-2.86-4.05-6.31-4.05-10.36c0-4.05,1.35-7.52,4.05-10.38
			c2.56-2.71,5.62-4.13,9.18-4.27V-56.57z M359.12-37.92c1.87-0.09,3.47-1.01,4.8-2.75c1.41-1.82,2.12-4.02,2.12-6.59
			c0-2.58-0.71-4.79-2.12-6.61c-1.33-1.73-2.93-2.64-4.8-2.74v-5.37c3.62,0.12,6.73,1.55,9.32,4.29c2.71,2.87,4.06,6.33,4.06,10.38
			c0,4.05-1.35,7.51-4.06,10.36c-2.59,2.75-5.7,4.18-9.32,4.3V-37.92z"/>
		<path class="st7" d="M381.03-32.64h-6.58v-29.32h6.58V-32.64z M394.24-45.8c0.52,0.53,1,1.3,1.48,2.31
			c0.2,0.22,0.38,1.09,0.52,2.61l0.21,1.04l0.6,3.23c0.13,0.34,0.31,0.99,0.52,1.96c0.23,0.35,0.64,1,1.23,1.94l-6.88,0.04
			c-0.23,0-0.64-0.83-1.23-2.49c-0.12-0.2-0.46-2.14-1.03-5.81c-0.24-0.87-0.79-1.56-1.65-2.08c-0.8-0.28-2.79-0.43-5.93-0.43v-5.3
			h5.27c2.06-0.73,3.09-2.11,3.09-4.12v-0.51c-0.46-2.19-1.7-3.32-3.71-3.41h-4.65v-5.2h4.65c3.88,0,6.7,1.07,8.46,3.2
			c1.23,1.82,1.86,3.73,1.86,5.73v0.39c0,2.28-0.65,4.29-1.96,6.02C394.83-46.37,394.55-46.07,394.24-45.8z"/>
		<path class="st7" d="M407.08-32.64h-6.58v-29.32h6.58V-32.64z M412.76-62.04c3.89,0,6.71,1.11,8.46,3.32
			c1.24,1.9,1.86,3.89,1.86,5.96v0.41c0,2.38-0.66,4.47-1.96,6.26c-1.75,2.39-5.22,3.51-10.41,3.33h-2.59v-5.51h5.27
			c2.06-0.76,3.09-2.19,3.09-4.28v-0.53c-0.46-2.28-1.7-3.47-3.72-3.55h-4.64v-5.41H412.76z"/>
		<path class="st7" d="M438.43-56.57c-1.68,0.2-3.14,1.1-4.38,2.69c-1.41,1.82-2.12,4.02-2.12,6.61c0,2.57,0.71,4.77,2.12,6.59
			c1.24,1.61,2.7,2.51,4.38,2.71v5.3c-3.57-0.14-6.63-1.56-9.18-4.29c-2.7-2.86-4.06-6.31-4.06-10.36c0-4.05,1.35-7.52,4.06-10.38
			c2.56-2.71,5.62-4.13,9.18-4.27V-56.57z M439.48-37.92c1.87-0.09,3.47-1.01,4.8-2.75c1.41-1.82,2.12-4.02,2.12-6.59
			c0-2.58-0.71-4.79-2.12-6.61c-1.33-1.73-2.93-2.64-4.8-2.74v-5.37c3.62,0.12,6.73,1.55,9.33,4.29c2.7,2.87,4.06,6.33,4.06,10.38
			c0,4.05-1.35,7.51-4.06,10.36c-2.6,2.75-5.71,4.18-9.33,4.3V-37.92z"/>
		<path class="st7" d="M461.39-32.64h-6.58v-29.32h6.58V-32.64z M474.61-45.8c0.51,0.53,1,1.3,1.47,2.31
			c0.21,0.22,0.38,1.09,0.53,2.61l0.2,1.04l0.6,3.23c0.14,0.34,0.31,0.99,0.53,1.96c0.23,0.35,0.64,1,1.23,1.94l-6.88,0.04
			c-0.23,0-0.64-0.83-1.23-2.49c-0.12-0.2-0.46-2.14-1.03-5.81c-0.25-0.87-0.8-1.56-1.66-2.08c-0.81-0.28-2.79-0.43-5.93-0.43v-5.3
			h5.27c2.05-0.73,3.09-2.11,3.09-4.12v-0.51c-0.46-2.19-1.69-3.32-3.72-3.41h-4.64v-5.2h4.64c3.89,0,6.71,1.07,8.46,3.2
			c1.24,1.82,1.86,3.73,1.86,5.73v0.39c0,2.28-0.66,4.29-1.96,6.02C475.19-46.37,474.92-46.07,474.61-45.8z"/>
		<path class="st7" d="M502.36-61.84v5.39h-21.55v-5.39H502.36z M495.03-32.7h-6.58v-22.67h6.58V-32.7z"/>
		<path class="st7" d="M520.47-61.9l10.23,29.26h-7.47l-1.94-6.22h-8.01l1.55-5.41h4.92v-0.1l-2.99-10.77h-0.1l-6.25,22.5h-5.86
			v-4.24l8.41-25.02H520.47z"/>
		<path class="st7" d="M538.69-32.64h-6.57v-29.32h6.57V-32.64z M553.63-38.05v5.39h-13.56v-5.39H553.63z"/>
		<path class="st7" d="M562.4-38.02v5.38h-6.57v-5.38H562.4z"/>
		<path class="st7" d="M577.68-56.57c-1.68,0.2-3.14,1.1-4.38,2.69c-1.41,1.82-2.12,4.02-2.12,6.61c0,2.57,0.71,4.77,2.12,6.59
			c1.24,1.61,2.7,2.51,4.38,2.71v5.3c-3.57-0.14-6.62-1.56-9.18-4.29c-2.71-2.86-4.06-6.31-4.06-10.36c0-4.05,1.35-7.52,4.06-10.38
			c2.56-2.71,5.62-4.13,9.18-4.27V-56.57z M583.53-53.88c-1.33-1.73-2.93-2.64-4.8-2.74v-5.37c3.62,0.12,6.73,1.55,9.32,4.29
			c1.32,1.4,2.32,2.94,2.98,4.63l-5.73,2.86C584.97-51.57,584.38-52.79,583.53-53.88z M588.05-36.94c-2.6,2.75-5.71,4.18-9.32,4.3
			v-5.28c1.87-0.09,3.47-1.01,4.8-2.75c0.66-0.85,1.16-1.79,1.52-2.81l5.56,2.92C589.96-39.27,589.11-38.06,588.05-36.94z"/>
		<path class="st7" d="M606.07-56.57c-1.68,0.2-3.15,1.1-4.38,2.69c-1.41,1.82-2.12,4.02-2.12,6.61c0,2.57,0.7,4.77,2.12,6.59
			c1.24,1.61,2.7,2.51,4.38,2.71v5.3c-3.57-0.14-6.63-1.56-9.19-4.29c-2.7-2.86-4.05-6.31-4.05-10.36c0-4.05,1.35-7.52,4.05-10.38
			c2.56-2.71,5.62-4.13,9.19-4.27V-56.57z M607.12-37.92c1.87-0.09,3.47-1.01,4.8-2.75c1.41-1.82,2.12-4.02,2.12-6.59
			c0-2.58-0.71-4.79-2.12-6.61c-1.33-1.73-2.94-2.64-4.8-2.74v-5.37c3.62,0.12,6.73,1.55,9.32,4.29c2.7,2.87,4.05,6.33,4.05,10.38
			c0,4.05-1.36,7.51-4.05,10.36c-2.6,2.75-5.71,4.18-9.32,4.3V-37.92z"/>
		<path class="st7" d="M629.02-32.64h-6.58v-27.5l6.58,11.1V-32.64z M638.55-34.66l-16.03-27.22h6.26l9.77,16.59V-34.66z
			 M640.08-45.31l9.77-16.59h6.25l-16.02,27.22V-45.31z M649.37-49.04l6.58-11.1v27.5h-6.58V-49.04z"/>
	</g>
	<g class="st1">
		<path class="st7" d="M5.85-23.05c-1.03,0.13-1.93,0.68-2.69,1.66c-0.87,1.12-1.3,2.47-1.3,4.06c0,1.58,0.43,2.93,1.3,4.05
			c0.76,0.99,1.66,1.55,2.69,1.67v3.26c-2.19-0.09-4.07-0.97-5.64-2.63c-1.66-1.76-2.49-3.88-2.49-6.37c0-2.49,0.83-4.62,2.49-6.38
			c1.57-1.66,3.45-2.54,5.64-2.62V-23.05z M6.49-11.59c1.15-0.06,2.13-0.62,2.95-1.69c0.87-1.12,1.3-2.47,1.3-4.05
			c0-1.59-0.43-2.94-1.3-4.06c-0.82-1.06-1.8-1.62-2.95-1.68v-3.3c2.22,0.08,4.14,0.95,5.73,2.63c1.66,1.77,2.49,3.89,2.49,6.38
			c0,2.49-0.83,4.61-2.49,6.37c-1.6,1.69-3.51,2.57-5.73,2.65V-11.59z"/>
		<path class="st7" d="M27.4-8.34h-4.04v-18.02h4.04V-8.34z M35.53-16.43c0.31,0.33,0.61,0.8,0.91,1.42
			c0.12,0.13,0.23,0.67,0.32,1.61l0.12,0.64l0.37,1.98c0.08,0.21,0.19,0.61,0.32,1.2c0.14,0.22,0.39,0.62,0.76,1.19L34.1-8.36
			c-0.14,0-0.39-0.51-0.76-1.53c-0.07-0.13-0.28-1.32-0.63-3.58c-0.15-0.54-0.49-0.96-1.02-1.28c-0.5-0.18-1.71-0.27-3.65-0.27
			v-3.26h3.24c1.26-0.45,1.9-1.29,1.9-2.53v-0.31c-0.28-1.34-1.04-2.04-2.28-2.09h-2.85v-3.2h2.85c2.39,0,4.12,0.66,5.2,1.97
			c0.76,1.12,1.14,2.3,1.14,3.53v0.24c0,1.4-0.4,2.64-1.2,3.7C35.89-16.78,35.72-16.59,35.53-16.43z"/>
		<path class="st7" d="M50.85-8.34h-4.04v-18.02h4.04V-8.34z"/>
		<path class="st7" d="M67.64-23.05c-1.03,0.13-1.93,0.68-2.69,1.66c-0.87,1.12-1.3,2.47-1.3,4.06c0,1.58,0.43,2.93,1.3,4.05
			c0.76,0.99,1.66,1.55,2.69,1.67v3.26c-2.19-0.09-4.07-0.97-5.65-2.63c-1.66-1.76-2.49-3.88-2.49-6.37c0-2.49,0.83-4.62,2.49-6.38
			c1.57-1.66,3.45-2.54,5.65-2.62V-23.05z M76.51-17.14c-0.05,2.4-0.88,4.46-2.49,6.16c-1.6,1.69-3.51,2.57-5.73,2.65v-3.25
			c1.15-0.06,2.13-0.62,2.95-1.69c0.14-0.17,0.27-0.36,0.39-0.55h-3.36v-3.31H76.51z M71.24-21.39c-0.82-1.06-1.8-1.62-2.95-1.68
			v-3.3c2.23,0.08,4.13,0.95,5.73,2.63c0.81,0.86,1.42,1.81,1.84,2.85l-3.52,1.75C72.12-19.97,71.76-20.73,71.24-21.39z"/>
		<path class="st7" d="M89.23-8.34h-4.04v-18.02h4.04V-8.34z"/>
		<path class="st7" d="M101.92-8.34h-4.04v-16.91l4.04,6.82V-8.34z M108.5-8.35L97.93-26.31h3.85l10.58,17.97L108.5-8.35z
			 M108.34-26.32h4.04v16.9l-4.04-6.82V-26.32z"/>
		<path class="st7" d="M130.92-26.32l6.29,17.98h-4.59l-1.19-3.83h-4.92l0.95-3.32h3.02v-0.06l-1.83-6.62h-0.06l-3.85,13.84h-3.6
			v-2.61l5.17-15.37H130.92z"/>
		<path class="st7" d="M149.55-8.34h-4.04v-18.02h4.04V-8.34z M158.73-11.66v3.31h-8.33v-3.31H158.73z"/>
		<path class="st7" d="M186.43-8.34h-4.04v-18.02h4.04V-8.34z M195.46-26.32v3.31h-8.34v-3.31H195.46z M194.8-19.51v3.31h-7.65
			v-3.31H194.8z"/>
		<path class="st7" d="M208.14-8.34h-4.04v-18.02h4.04V-8.34z M216.27-16.43c0.32,0.33,0.62,0.8,0.91,1.42
			c0.12,0.13,0.23,0.67,0.32,1.61l0.13,0.64l0.37,1.98c0.08,0.21,0.19,0.61,0.32,1.2c0.14,0.22,0.39,0.62,0.76,1.19l-4.23,0.03
			c-0.14,0-0.39-0.51-0.76-1.53c-0.07-0.13-0.28-1.32-0.63-3.58c-0.15-0.54-0.49-0.96-1.02-1.28c-0.5-0.18-1.71-0.27-3.65-0.27
			v-3.26h3.24c1.27-0.45,1.9-1.29,1.9-2.53v-0.31c-0.28-1.34-1.04-2.04-2.28-2.09h-2.85v-3.2h2.85c2.39,0,4.12,0.66,5.2,1.97
			c0.76,1.12,1.14,2.3,1.14,3.53v0.24c0,1.4-0.4,2.64-1.2,3.7C216.63-16.78,216.46-16.59,216.27-16.43z"/>
		<path class="st7" d="M231.59-8.34h-4.04v-18.02h4.04V-8.34z M240.62-26.32v3.31h-8.34v-3.31H240.62z M239.96-19.51v3.31h-7.65
			v-3.31H239.96z M240.66-11.67v3.31h-8.33v-3.31H240.66z"/>
		<path class="st7" d="M253.38-8.34h-4.04v-18.02h4.04V-8.34z M262.41-26.32v3.31h-8.33v-3.31H262.41z M261.75-19.51v3.31h-7.65
			v-3.31H261.75z M262.45-11.67v3.31h-8.33v-3.31H262.45z"/>
		<path class="st7" d="M293.83-8.34h-1.3l-6.49-17.98h3.85l3.94,10.93V-8.34z M294.59-15.23l3.98-11.05h3.84l-6.48,17.96h-1.35
			V-15.23z"/>
		<path class="st7" d="M314.7-8.34h-4.04v-18.02h4.04V-8.34z M323.73-26.32v3.31h-8.34v-3.31H323.73z M323.07-19.51v3.31h-7.66
			v-3.31H323.07z M323.76-11.67v3.31h-8.33v-3.31H323.76z"/>
		<path class="st7" d="M340.58-23.05c-1.03,0.13-1.93,0.68-2.69,1.66c-0.87,1.12-1.3,2.47-1.3,4.06c0,1.58,0.43,2.93,1.3,4.05
			c0.76,0.99,1.66,1.55,2.69,1.67v3.26c-2.19-0.09-4.07-0.97-5.64-2.63c-1.66-1.76-2.49-3.88-2.49-6.37c0-2.49,0.83-4.62,2.49-6.38
			c1.57-1.66,3.45-2.54,5.64-2.62V-23.05z M344.18-21.39c-0.82-1.06-1.81-1.62-2.96-1.68v-3.3c2.22,0.08,4.14,0.95,5.73,2.63
			c0.81,0.86,1.42,1.81,1.83,2.85l-3.52,1.75C345.06-19.97,344.7-20.73,344.18-21.39z M346.96-10.98c-1.59,1.69-3.51,2.57-5.73,2.65
			v-3.25c1.15-0.06,2.14-0.62,2.96-1.69c0.4-0.53,0.71-1.1,0.92-1.73l3.42,1.79C348.13-12.41,347.61-11.67,346.96-10.98z"/>
		<path class="st7" d="M370.54-26.29v3.31h-13.25v-3.31H370.54z M366.04-8.38H362v-13.93h4.04V-8.38z"/>
		<path class="st7" d="M387.48-23.05c-1.03,0.13-1.93,0.68-2.69,1.66c-0.87,1.12-1.3,2.47-1.3,4.06c0,1.58,0.43,2.93,1.3,4.05
			c0.76,0.99,1.66,1.55,2.69,1.67v3.26c-2.19-0.09-4.07-0.97-5.64-2.63c-1.67-1.76-2.5-3.88-2.5-6.37c0-2.49,0.83-4.62,2.5-6.38
			c1.57-1.66,3.45-2.54,5.64-2.62V-23.05z M388.12-11.59c1.15-0.06,2.13-0.62,2.96-1.69c0.87-1.12,1.3-2.47,1.3-4.05
			c0-1.59-0.44-2.94-1.3-4.06c-0.82-1.06-1.81-1.62-2.96-1.68v-3.3c2.23,0.08,4.13,0.95,5.73,2.63c1.67,1.77,2.5,3.89,2.5,6.38
			c0,2.49-0.83,4.61-2.5,6.37c-1.59,1.69-3.5,2.57-5.73,2.65V-11.59z"/>
		<path class="st7" d="M409.03-8.34h-4.05v-18.02h4.05V-8.34z M417.16-16.43c0.31,0.33,0.62,0.8,0.9,1.42
			c0.12,0.13,0.23,0.67,0.32,1.61l0.12,0.64l0.37,1.98c0.08,0.21,0.19,0.61,0.32,1.2c0.14,0.22,0.39,0.62,0.76,1.19l-4.23,0.03
			c-0.14,0-0.39-0.51-0.75-1.53c-0.07-0.13-0.28-1.32-0.63-3.58c-0.15-0.54-0.49-0.96-1.02-1.28c-0.49-0.18-1.71-0.27-3.64-0.27
			v-3.26h3.24c1.26-0.45,1.9-1.29,1.9-2.53v-0.31c-0.28-1.34-1.04-2.04-2.28-2.09h-2.85v-3.2h2.85c2.39,0,4.12,0.66,5.2,1.97
			c0.76,1.12,1.14,2.3,1.14,3.53v0.24c0,1.4-0.4,2.64-1.2,3.7C417.52-16.78,417.35-16.59,417.16-16.43z"/>
		<path class="st7" d="M433-12.41c0.76,0.44,1.49,0.71,2.18,0.79l0.36,0.06l-0.02,3.23c-2.16,0.06-3.82-0.39-4.96-1.34
			c-1.28-0.84-1.97-2.29-2.06-4.37l3.73-0.36c0.07,0.88,0.33,1.53,0.78,1.95V-12.41z M434.34-16.01c-3.57-0.65-5.36-2.33-5.36-5.03
			v-0.24c0-2.82,1.8-4.48,5.41-4.98l1.12-0.03l0.02,3c-0.81,0.07-1.37,0.17-1.69,0.3c-0.66,0.25-0.97,0.82-0.96,1.71
			c0,0.83,1.04,1.43,3.11,1.82c0.52,0.09,0.95,0.18,1.28,0.26c3.68,0.62,5.52,2.39,5.52,5.32v0.25c0,3-1.8,4.77-5.41,5.3l-1.22,0.04
			v-3.17c0.86-0.09,1.45-0.21,1.76-0.35c0.65-0.27,0.97-0.88,0.95-1.82c0-0.89-1.02-1.57-3.08-2.06c-0.46-0.14-0.97-0.26-1.53-0.36
			L434.34-16.01z M436.12-26.32c1.78,0,3.35,0.5,4.7,1.51c0.8,0.67,1.38,1.91,1.74,3.72v0.18l-2.03,0.25l-1.69,0.11
			c-0.16-0.98-0.44-1.63-0.84-1.94c-0.33-0.28-0.95-0.55-1.86-0.79L436.12-26.32z"/>
		<path class="st7" d="M463.48-12.41c0.76,0.44,1.48,0.71,2.17,0.79l0.36,0.06l-0.02,3.23c-2.16,0.06-3.81-0.39-4.96-1.34
			c-1.28-0.84-1.97-2.29-2.06-4.37l3.73-0.36c0.07,0.88,0.33,1.53,0.78,1.95V-12.41z M464.81-16.01c-3.57-0.65-5.35-2.33-5.35-5.03
			v-0.24c0-2.82,1.8-4.48,5.41-4.98l1.12-0.03l0.02,3c-0.81,0.07-1.37,0.17-1.68,0.3c-0.66,0.25-0.97,0.82-0.96,1.71
			c0,0.83,1.04,1.43,3.12,1.82c0.52,0.09,0.95,0.18,1.28,0.26c3.68,0.62,5.52,2.39,5.52,5.32v0.25c0,3-1.8,4.77-5.41,5.3l-1.21,0.04
			v-3.17c0.86-0.09,1.45-0.21,1.76-0.35c0.65-0.27,0.97-0.88,0.95-1.82c0-0.89-1.02-1.57-3.07-2.06c-0.47-0.14-0.97-0.26-1.53-0.36
			L464.81-16.01z M466.59-26.32c1.78,0,3.35,0.5,4.7,1.51c0.79,0.67,1.37,1.91,1.74,3.72v0.18l-2.04,0.25l-1.69,0.11
			c-0.16-0.98-0.44-1.63-0.85-1.94c-0.33-0.28-0.95-0.55-1.86-0.79L466.59-26.32z"/>
		<path class="st7" d="M486-8.34h-4.05v-18.02H486V-8.34z"/>
		<path class="st7" d="M498.69-8.34h-4.04v-16.91l4.04,6.82V-8.34z M505.26-8.35L494.7-26.31h3.84l10.58,17.97L505.26-8.35z
			 M505.1-26.32h4.04v16.9l-4.04-6.82V-26.32z"/>
		<path class="st7" d="M526.04-23.05c-1.03,0.13-1.93,0.68-2.69,1.66c-0.87,1.12-1.3,2.47-1.3,4.06c0,1.58,0.43,2.93,1.3,4.05
			c0.76,0.99,1.66,1.55,2.69,1.67v3.26c-2.19-0.09-4.07-0.97-5.64-2.63c-1.66-1.76-2.49-3.88-2.49-6.37c0-2.49,0.83-4.62,2.49-6.38
			c1.57-1.66,3.46-2.54,5.64-2.62V-23.05z M529.65-21.39c-0.82-1.06-1.8-1.62-2.96-1.68v-3.3c2.23,0.08,4.13,0.95,5.73,2.63
			c0.81,0.86,1.42,1.81,1.83,2.85l-3.52,1.75C530.53-19.97,530.16-20.73,529.65-21.39z M532.42-10.98c-1.6,1.69-3.5,2.57-5.73,2.65
			v-3.25c1.15-0.06,2.14-0.62,2.96-1.69c0.4-0.53,0.71-1.1,0.93-1.73l3.43,1.79C533.6-12.41,533.08-11.67,532.42-10.98z"/>
		<path class="st7" d="M546.84-8.34h-4.04v-18.02h4.04V-8.34z M555.87-26.32v3.31h-8.33v-3.31H555.87z M555.22-19.51v3.31h-7.65
			v-3.31H555.22z M555.91-11.67v3.31h-8.34v-3.31H555.91z"/>
		<path class="st7" d="M579.44-11.79v-0.53c0-2.93,1.89-4.9,5.67-5.92c0.33-0.09,0.76-0.17,1.28-0.26c2.03-0.6,3.01-1.55,2.96-2.86
			c0.02-0.89-0.3-1.45-0.96-1.71c-0.31-0.13-0.87-0.23-1.69-0.3l0.03-3l1.11,0.03c3.6,0.5,5.41,2.16,5.41,4.98v0.24
			c0,2.7-1.74,4.72-5.21,6.07c-0.52,0.07-1.02,0.18-1.48,0.33c-2.22,0.65-3.29,1.54-3.22,2.66l0.01,3.77h-3.92V-11.79z
			 M583.73-22.55c-0.43,0.39-0.68,1-0.75,1.81l-3.54-0.34c0.09-1.92,0.74-3.27,1.95-4.05c1.09-0.89,2.66-1.3,4.7-1.26l0.03,3
			l-0.34,0.06c-0.65,0.08-1.34,0.32-2.06,0.74V-22.55z M593.28-11.66v3.31h-9.36v-3.31H593.28z"/>
		<path class="st7" d="M607.5-22.95c-0.97,0.15-1.59,0.84-1.84,2.07v6.56c0,1.26,0.61,2.11,1.84,2.53v3.43
			c-2.01-0.15-3.43-0.68-4.25-1.6c-1.1-1.36-1.65-2.76-1.65-4.23v-6.48c0-1.27,0.38-2.49,1.14-3.66l-0.06-0.06v-0.06l0.06,0.06
			c1.01-1.24,2.59-1.89,4.75-1.97V-22.95z M608.4-26.33c2.16,0.08,3.74,0.73,4.75,1.97l0.06-0.06v0.06l-0.06,0.06
			c0.76,1.17,1.14,2.39,1.14,3.66v6.48c0,1.47-0.54,2.87-1.65,4.23c-0.82,0.92-2.23,1.46-4.24,1.61v-3.43
			c1.22-0.42,1.84-1.27,1.84-2.53v-6.56c-0.25-1.23-0.86-1.92-1.84-2.07V-26.33z"/>
		<path class="st7" d="M628.92-22.95c-0.98,0.15-1.59,0.84-1.84,2.07v6.56c0,1.26,0.61,2.11,1.84,2.53v3.43
			c-2.01-0.15-3.42-0.68-4.24-1.6c-1.1-1.36-1.65-2.76-1.65-4.23v-6.48c0-1.27,0.38-2.49,1.14-3.66l-0.06-0.06v-0.06l0.06,0.06
			c1.01-1.24,2.59-1.89,4.75-1.97V-22.95z M629.81-26.33c2.16,0.08,3.75,0.73,4.75,1.97l0.06-0.06v0.06l-0.06,0.06
			c0.76,1.17,1.14,2.39,1.14,3.66v6.48c0,1.47-0.55,2.87-1.65,4.23c-0.82,0.92-2.23,1.46-4.24,1.61v-3.43
			c1.22-0.42,1.84-1.27,1.84-2.53v-6.56c-0.25-1.23-0.86-1.92-1.84-2.07V-26.33z"/>
		<path class="st7" d="M644.46-23.02v-3.31h13.83v3.31H644.46z M648.73-12.1c0.72,0.42,1.4,0.67,2.05,0.74l0.35,0.06l-0.03,3
			c-2.04,0.05-3.61-0.37-4.7-1.26c-1.22-0.78-1.86-2.13-1.95-4.05l3.53-0.34c0.07,0.81,0.32,1.41,0.75,1.8V-12.1z M648.4-22.47
			c-0.18,1.81,0.76,2.76,2.82,2.86c0.69-0.01,1.42,0.11,2.17,0.36c3.24,1.09,4.86,2.98,4.86,5.68v0.24c0,2.82-1.8,4.48-5.41,4.98
			l-1.11,0.02l-0.02-3c0.81-0.07,1.37-0.17,1.69-0.3c0.65-0.25,0.97-0.82,0.95-1.71c0.05-1.31-0.84-2.27-2.67-2.86
			c-0.72-0.09-1.37-0.18-1.96-0.26c-3.62-0.26-5.37-2.26-5.23-6.01L648.4-22.47z"/>
	</g>
</g>
<g id="Layer_2">
	<g>
		<path class="st8" d="M313.07,228.24l-9.07-9.52L174.67,354.57l16.82,17.67c14.13-6.37,31.12-3.5,42.65,8.61
			c11.53,12.11,14.26,29.97,8.2,44.8l16.82,17.67l17.08-17.94"/>
		<path class="st8" d="M417.51,284.76c-14.12,6.37-31.12,3.5-42.65-8.61s-14.26-29.97-8.2-44.81l-16.82-17.67L220.51,349.53
			l16.82,17.67c14.13-6.37,31.12-3.5,42.65,8.61c11.53,12.11,14.26,29.97,8.2,44.8L305,438.28l129.33-135.85L417.51,284.76z"/>
		<line class="st9" x1="319.68" y1="246.15" x2="403.53" y2="334.22"/>
		<path class="st8" d="M344.63,312.08l-6.41,17.94c-0.38,1.07-0.2,2.27,0.48,3.16l11.37,14.98c1.65,2.18,0.1,5.39-2.55,5.26
			l-18.22-0.86c-1.08-0.05-2.12,0.5-2.71,1.45l-10.05,15.99c-1.46,2.32-4.85,1.76-5.55-0.92l-4.86-18.47
			c-0.29-1.1-1.11-1.96-2.15-2.26l-17.58-5.1c-2.55-0.74-3.09-4.3-0.88-5.83l15.22-10.56c0.91-0.63,1.43-1.71,1.38-2.85l-0.82-19.14
			c-0.12-2.78,2.94-4.42,5.01-2.68l14.26,11.94c0.85,0.71,1.99,0.9,3.01,0.5l17.08-6.73C343.14,306.93,345.56,309.47,344.63,312.08z
			"/>
	</g>
</g>
</svg>
